<?xml version="1.0" encoding="UTF-8" standalone="no"?>
<!-- Created with Inkscape (http://www.inkscape.org/) -->

<svg
   xmlns:dc="http://purl.org/dc/elements/1.1/"
   xmlns:cc="http://creativecommons.org/ns#"
   xmlns:rdf="http://www.w3.org/1999/02/22-rdf-syntax-ns#"
   xmlns:svg="http://www.w3.org/2000/svg"
   xmlns="http://www.w3.org/2000/svg"
   xmlns:sodipodi="http://sodipodi.sourceforge.net/DTD/sodipodi-0.dtd"
   xmlns:inkscape="http://www.inkscape.org/namespaces/inkscape"
   id="svg4776"
   sodipodi:docname="DNS Icon.svg"
   viewBox="0 0 286.91 286.91"
   version="1.1"
   inkscape:version="0.91 r13725"
   width="100%"
   height="100%">
  <defs
     id="defs16" />
  <sodipodi:namedview
     id="base"
     bordercolor="#666666"
     inkscape:pageshadow="2"
     inkscape:window-y="-8"
     pagecolor="#ffffff"
     inkscape:window-height="1027"
     inkscape:window-maximized="1"
     inkscape:zoom="2.8284271"
     inkscape:window-x="-8"
     showgrid="false"
     borderopacity="1.0"
     inkscape:current-layer="layer1"
     inkscape:cx="176.12516"
     inkscape:cy="138.8026"
     inkscape:window-width="1920"
     inkscape:pageopacity="0.0"
     inkscape:document-units="px" />
  <g
     id="layer1"
     inkscape:label="Layer 1"
     inkscape:groupmode="layer"
     transform="translate(-231.54 -388.91)">
    <g
       transform="scale(1.3097077,0.76352914)"
       style="font-style:normal;font-weight:normal;font-size:62.29623413px;line-height:125%;font-family:sans-serif;letter-spacing:0px;word-spacing:0px;fill:#ffffff;fill-opacity:1;stroke:none;stroke-width:1px;stroke-linecap:butt;stroke-linejoin:miter;stroke-opacity:1"
       id="text4134">
      <path
         id="path4143"
         style="font-style:normal;font-variant:normal;font-weight:bold;font-stretch:normal;font-size:124.59194946px;line-height:125%;font-family:'Source Code Pro';-inkscape-font-specification:'Source Code Pro, Bold';text-align:start;writing-mode:lr-tb;text-anchor:start;fill:#ffffff;fill-opacity:1"
         d="m 339.47169,713.80319 q 4.6099,3.73776 9.96736,6.105 5.48204,2.36725 10.8395,2.36725 6.35419,0 9.2198,-2.11806 2.99021,-2.11806 2.99021,-5.73123 0,-1.86888 -0.87214,-3.23939 -0.87215,-1.37051 -2.49184,-2.36725 -1.6197,-1.12133 -3.98695,-1.99347 -2.24265,-0.99674 -5.23286,-2.11806 l -10.46572,-4.48531 q -3.36398,-1.24592 -6.60338,-3.23939 -3.11479,-1.99348 -5.48204,-4.60991 -2.36725,-2.74102 -3.86235,-6.22959 -1.37051,-3.61317 -1.37051,-8.09848 0,-4.98368 2.11806,-9.3444 2.24266,-4.48531 6.10501,-7.7247 3.98694,-3.36398 9.46898,-5.23286 5.48205,-1.86888 12.08542,-1.86888 7.47552,0 14.45267,2.74102 6.97715,2.74103 12.58379,7.97389 l -9.3444,11.58705 q -4.23613,-3.1148 -8.34766,-4.73449 -4.11153,-1.74429 -9.3444,-1.74429 -5.35745,0 -8.34766,1.99347 -2.86561,1.86888 -2.86561,5.35745 0,3.73776 3.73776,5.60664 3.73775,1.86888 9.59358,3.98694 l 9.84276,4.23613 q 8.09848,2.99021 12.70838,8.22307 4.73449,5.23286 4.73449,13.82971 0,5.10827 -2.11806,9.71817 -2.11806,4.48531 -6.10501,7.97388 -3.98694,3.36398 -9.84276,5.48205 -5.85582,1.99347 -13.45593,1.99347 -8.22307,0 -16.32155,-2.86562 -7.97388,-2.9902 -14.57725,-8.84602 l 10.59031,-12.58379 z m -83.30334,-58.43363 18.68879,0 17.19369,40.49239 6.97715,17.81665 0.49837,0 q -0.62296,-6.47878 -1.6197,-14.45267 -0.99673,-7.97388 -0.99673,-15.07563 l 0,-28.78074 17.56746,0 0,81.23396 -18.68879,0 -17.19369,-40.49239 -6.97715,-17.69205 -0.49837,0 q 0.62296,6.72796 1.6197,14.45266 0.99674,7.7247 0.99674,14.95104 l 0,28.78074 -17.56747,0 0,-81.23396 z m -74.83109,0 22.05278,0 q 8.84602,0 16.07236,2.36725 7.22633,2.36725 12.3346,7.35093 5.10827,4.85908 7.84929,12.45919 2.86562,7.60011 2.86562,18.06583 0,10.46573 -2.86562,18.19043 -2.74102,7.7247 -7.84929,12.83297 -4.98368,4.98368 -11.96083,7.47552 -6.97715,2.49184 -15.4494,2.49184 l -23.04951,0 0,-81.23396 z m 21.05604,66.40751 q 4.7345,0 8.59685,-1.37051 3.98694,-1.37051 6.72796,-4.36072 2.86562,-3.11479 4.36072,-8.09847 1.61969,-4.98368 1.61969,-12.33461 0,-7.22633 -1.61969,-12.08541 -1.4951,-4.98368 -4.36072,-7.8493 -2.74102,-2.9902 -6.72796,-4.23612 -3.86235,-1.24592 -8.59685,-1.24592 l -2.61643,0 0,51.58106 2.61643,0 z m 83.95978,-201.67202 c -47.4168,0 -87.79603,52.37609 -101.23276,124.55947 l 15.00211,0 c 1.55853,-7.13442 3.42201,-14.00907 5.57852,-20.59772 l 28.86962,0 c -1.25908,6.73762 -2.2942,13.62928 -3.1517,20.59772 l 14.62391,0 c 1.02168,-7.02245 2.2395,-13.91861 3.68749,-20.59772 l 27.86107,0 0,20.59772 14.11964,0 0,-20.59772 30.09878,0 c 1.61955,6.68497 2.98047,13.56932 4.12874,20.59772 l 14.6239,0 c -0.98243,-6.97579 -2.12611,-13.85407 -3.52991,-20.59772 l 29.97272,0 c 2.15692,6.58988 4.01982,13.46189 5.57852,20.59772 l 14.97059,0 C 374.11755,572.48123 333.76984,520.10505 286.35308,520.10505 Z m 21.30552,28.49082 c 19.76328,7.79513 37.02397,26.07579 49.51329,51.25103 l -26.19066,0 c -5.84928,-19.41142 -13.59946,-36.93081 -23.32263,-51.25103 z m -46.73978,1.78405 c -8.75291,13.93663 -15.65677,30.81122 -20.80125,49.46698 l -24.5833,0 c 11.61272,-23.40822 27.34682,-40.85307 45.38455,-49.46698 z m 30.79216,7.78497 c 9.30909,10.93064 16.82063,25.34531 22.78683,41.68201 l -22.78683,0 z m -14.11964,0.16218 0,41.51983 -21.27401,0 c 5.46554,-16.37419 12.44292,-30.75259 21.27401,-41.51983 z m -93.00681,188.29891 c 12.82746,73.81372 53.65512,127.74915 101.76855,127.74915 48.11409,0 88.9417,-53.93384 101.76855,-127.74915 l -14.90756,0 c -1.42154,6.96145 -3.12048,13.69201 -5.10577,20.16523 l -30.25636,0 c 1.28811,-6.59986 2.35138,-13.34636 3.24625,-20.16523 l -14.40329,0 c -1.00553,6.89506 -2.21028,13.6317 -3.68749,20.16523 l -31.29643,0 0,-20.16523 -14.11964,0 0,20.16523 -28.58596,0 c -1.29619,-6.50934 -2.41139,-13.25304 -3.34081,-20.16523 l -14.49784,0 c 0.81228,6.82677 1.8036,13.56569 2.93108,20.16523 l -29.49995,0 c -1.98529,-6.47322 -3.71575,-13.20378 -5.13729,-20.16523 z m 29.27933,44.38513 25.3082,0 c 5.16534,20.49496 12.01377,38.7988 20.83276,52.71072 -18.56749,-9.21246 -34.57004,-27.90684 -46.14096,-52.71072 z m 41.03521,0 22.69227,0 0,45.25012 c -9.16978,-9.97097 -16.83936,-25.86674 -22.69227,-45.25012 z m 36.81191,0 24.26813,0 c -6.16133,17.66675 -14.17379,32.95076 -24.26813,44.11482 z m 40.49941,0 26.63191,0 c -12.744,27.31853 -30.89135,47.20905 -51.87707,55.19758 10.76848,-14.93596 19.13546,-33.95262 25.24516,-55.19758 z" />
    </g>
  </g>
  <metadata
     id="metadata14">
    <rdf:RDF>
      <cc:Work>
        <dc:format>image/svg+xml</dc:format>
        <dc:type
           rdf:resource="http://purl.org/dc/dcmitype/StillImage" />
        <cc:license
           rdf:resource="http://creativecommons.org/licenses/publicdomain/" />
        <dc:publisher>
          <cc:Agent
             rdf:about="http://openclipart.org/">
            <dc:title>Openclipart</dc:title>
          </cc:Agent>
        </dc:publisher>
        <dc:title></dc:title>
        <dc:date>2010-09-23T04:19:58</dc:date>
        <dc:description />
        <dc:source>https://openclipart.org/detail/86401/internet-icon-by-ben</dc:source>
        <dc:creator>
          <cc:Agent>
            <dc:title>ben</dc:title>
          </cc:Agent>
        </dc:creator>
        <dc:subject>
          <rdf:Bag>
            <rdf:li>Icon</rdf:li>
            <rdf:li>internet</rdf:li>
            <rdf:li>world</rdf:li>
          </rdf:Bag>
        </dc:subject>
      </cc:Work>
      <cc:License
         rdf:about="http://creativecommons.org/licenses/publicdomain/">
        <cc:permits
           rdf:resource="http://creativecommons.org/ns#Reproduction" />
        <cc:permits
           rdf:resource="http://creativecommons.org/ns#Distribution" />
        <cc:permits
           rdf:resource="http://creativecommons.org/ns#DerivativeWorks" />
      </cc:License>
    </rdf:RDF>
  </metadata>
</svg>
